<?xml version="1.0" encoding="utf-8"?>
<!-- Generator: Adobe Illustrator 15.0.2, SVG Export Plug-In  -->
<!DOCTYPE svg PUBLIC "-//W3C//DTD SVG 1.1//EN" "http://www.w3.org/Graphics/SVG/1.1/DTD/svg11.dtd" [
	<!ENTITY ns_flows "http://ns.adobe.com/Flows/1.0/">
]>
<svg version="1.1"
	 xmlns="http://www.w3.org/2000/svg" xmlns:xlink="http://www.w3.org/1999/xlink" xmlns:a="http://ns.adobe.com/AdobeSVGViewerExtensions/3.0/"
	 x="0px" y="0px" width="479px" height="360px" viewBox="-57.847 -29.75 479 360" enable-background="new -57.847 -29.75 479 360"
	 xml:space="preserve">
<defs>
</defs>
<path fill="#4B4B4A" d="M277.957,295.814l-20.344-116.887c-0.298-1.712-1.783-2.96-3.519-2.96h-21.9
	c-1.737,0-3.222,1.248-3.519,2.96l-20.345,116.887C207.95,298,209.632,300,211.849,300h12.211c1.754,0,3.249-1.275,3.526-3.008
	l3.173-19.831h24.768l3.173,19.831c0.277,1.732,1.772,3.008,3.527,3.008h12.21C276.656,300,278.338,298,277.957,295.814
	 M233.756,258.654l9.128-57.686h0.518l9.128,57.686H233.756z"/>
<path fill="#4B4B4A" d="M131.634,295.814l-20.343-116.887c-0.299-1.712-1.783-2.96-3.519-2.96h-21.9c-1.736,0-3.222,1.248-3.52,2.96
	L62.008,295.814C61.627,298,63.31,300,65.527,300h12.21c1.754,0,3.25-1.275,3.527-3.008l3.173-19.831h24.768l3.173,19.831
	c0.277,1.732,1.772,3.008,3.527,3.008h12.21C130.333,300,132.015,298,131.634,295.814 M87.434,258.654l9.128-57.686h0.518
	l9.129,57.686H87.434z"/>
<path fill="#4B4B4A" d="M63.104,202.474c0-19.837-8.834-26.506-26.841-26.506H4.237c-1.923,0-3.481,1.559-3.481,3.483v117.068
	c0,1.923,1.558,3.481,3.481,3.481h15.209c1.924,0,3.482-1.559,3.482-3.481v-46.531h13.335c17.504,0,26.841-8.334,26.841-27.176
	V202.474z M41.099,218.311c0,10.501-2.502,13.171-10.333,13.171h-7.838v-37.841h7.838c7.831,0,10.333,3,10.333,13.003V218.311z"/>
<path fill="#4B4B4A" d="M29.842,163.573h3.671c22.005,0,31.007-13.334,31.007-30.173v-3.503c0-14.835-5.003-22.168-16.003-32.34
	L32.512,82.885c-6.667-6.168-9.17-9.668-9.17-17.006v-1.165c0-7.17,3.001-10.003,9.5-10.003c6.001,0,9.006,3,9.006,10.501v8.525
	c0,1.922,1.559,3.481,3.483,3.481h14.374c1.922,0,3.482-1.56,3.482-3.481V60.88c0-16.172-10.506-24.005-28.676-24.005h-3.5
	c-19.839,0-30.177,8.667-30.177,27.503v3.503c0,13.67,5.334,21.837,15.169,30.677l16.173,14.503
	c6.667,6.001,9.336,10.167,9.336,18.334v1.337c0,8-3.335,12.001-9.835,12.001c-6.504,0-10.003-3.335-10.003-10.17v-13.52
	c0-1.922-1.559-3.481-3.482-3.481H3.483c-1.923,0-3.483,1.56-3.483,3.481v17.522C0,154.572,10.339,163.573,29.842,163.573"/>
<path fill="#4B4B4A" d="M76.956,162.24h49.092c1.924,0,3.483-1.559,3.483-3.481v-12.875c0-1.923-1.559-3.482-3.483-3.482H95.148
	v-34.343h24.4c1.923,0,3.482-1.558,3.482-3.481V91.702c0-1.923-1.559-3.483-3.482-3.483h-24.4V57.544h30.899
	c1.924,0,3.483-1.558,3.483-3.481V41.69c0-1.923-1.559-3.482-3.483-3.482H76.956c-1.923,0-3.481,1.559-3.481,3.482v117.068
	C73.474,160.681,75.032,162.24,76.956,162.24"/>
<path fill="#4B4B4A" d="M195.23,41.133l-13.277,72.128l-13.277-72.128c-0.312-1.695-1.79-2.925-3.513-2.925h-23.128
	c-1.973,0-3.571,1.6-3.571,3.572v116.888c0,1.973,1.599,3.572,3.571,3.572h11.678c1.979,0,3.581-1.607,3.572-3.586
	c-0.075-15.815-0.366-79.074-0.366-90.846h0.498c1.441,8.449,14.744,76.623,17.66,91.551c0.328,1.677,1.796,2.881,3.505,2.881h6.746
	c1.709,0,3.178-1.205,3.505-2.881c2.915-14.928,16.218-83.102,17.66-91.551h0.497c0,12.4-0.292,75.111-0.366,90.847
	c-0.009,1.979,1.593,3.585,3.572,3.585h11.677c1.973,0,3.572-1.599,3.572-3.572V41.78c0-1.973-1.6-3.572-3.572-3.572h-23.128
	C197.021,38.208,195.543,39.438,195.23,41.133"/>
<path fill="#4B4B4A" d="M177.474,175.968h-35.528c-1.923,0-3.483,1.559-3.483,3.482v117.069c0,1.923,1.56,3.481,3.483,3.481h14.873
	c1.923,0,3.483-1.559,3.483-3.481v-46.595h9.169c7.337,0,10.171,3.667,10.171,12.169v34.425c0,1.923,1.558,3.481,3.481,3.481h14.874
	c1.923,0,3.483-1.559,3.483-3.481v-38.092c0-12.668-6.001-18.004-12.501-20.506c5.666-1.667,12.501-7.002,12.501-20.005v-18.442
	C201.479,182.97,193.479,175.968,177.474,175.968 M179.642,219.918c0,8-2.67,12.333-10.171,12.333h-9.169v-39.612h9.169
	c7.501,0,10.171,3.167,10.171,11.67V219.918z"/>
<path fill="#4B4B4A" d="M347.916,217.915v-18.442c0-16.503-8-23.505-24.004-23.505h-35.529c-1.924,0-3.482,1.559-3.482,3.482
	v117.069c0,1.923,1.559,3.481,3.482,3.481h14.874c1.923,0,3.482-1.559,3.482-3.481v-46.595h9.169
	c7.338,0,10.171,3.667,10.171,12.169v34.425c0,1.923,1.558,3.481,3.481,3.481h14.874c1.923,0,3.482-1.559,3.482-3.481v-38.092
	c0-12.668-6.001-18.004-12.5-20.506C341.081,236.254,347.916,230.918,347.916,217.915 M326.079,219.918
	c0,8-2.67,12.333-10.171,12.333h-9.169v-39.612h9.169c7.501,0,10.171,3.167,10.171,11.67V219.918z"/>
<path fill="#B61251" d="M360.859,55.585L308.055,2.78c-3.707-3.707-9.717-3.707-13.425,0l-52.806,52.805
	c-3.706,3.707-3.706,9.718,0,13.424l9.822,9.822c3.707,3.707,9.718,3.707,13.424,0l19.14-19.14c0.256-0.256,0.695-0.075,0.695,0.289
	v95.258c0,6.225,7.527,9.343,11.929,4.941l12.087-12.087c5.672-5.67,8.857-13.363,8.857-21.383V59.979
	c0-0.363,0.438-0.545,0.695-0.289l19.141,19.14c3.706,3.707,9.716,3.707,13.423,0l9.821-9.822
	C364.566,65.303,364.566,59.292,360.859,55.585"/>
</svg>
